<svg fill="#000000" xmlns="http://www.w3.org/2000/svg" viewBox="0 0 50 50" width="50px" height="50px"><path d="M37,3H13C7.486,3,3,7.487,3,13.001v23.997C3,42.513,7.486,47,13,47h24c5.514,0,10-4.487,10-10.001V13C47,7.486,42.514,3,37,3z M36.238,20.48c0.01,0.237,0.016,0.477,0.016,0.719C36.254,28.537,30.681,37,20.491,37c-3.128,0-6.041-0.919-8.491-2.496c0.433,0.052,0.872,0.077,1.321,0.077c2.596,0,4.985-0.886,6.879-2.376c-2.424-0.044-4.468-1.653-5.175-3.857c0.339,0.065,0.686,0.1,1.044,0.1c0.505,0,0.995-0.067,1.458-0.196c-2.532-0.512-4.441-2.754-4.441-5.446c0-0.024,0-0.047,0-0.07c0.747,0.416,1.6,0.667,2.509,0.696c-1.488-0.998-2.464-2.696-2.464-4.623c0-1.018,0.272-1.971,0.749-2.793c2.733,3.36,6.815,5.571,11.418,5.803c-0.095-0.407-0.145-0.83-0.145-1.265c0-3.067,2.48-5.554,5.54-5.554c1.593,0,3.032,0.674,4.042,1.754c1.261-0.249,2.448-0.711,3.518-1.347c-0.413,1.295-1.292,2.384-2.437,3.072c1.122-0.136,2.188-0.433,3.183-0.875C38.258,18.718,37.319,19.697,36.238,20.48z"/></svg>